# xmcd
#
# Track frame offsets:
#	182
#	11670
#	24382
#	34507
#	46995
#	58695
#	69770
#	81220
#	93770
#	111220
#	122057
#	135595
#	148007
#	160720
#	175595
#	190195
#	203332
#	216595
#	228745
#	241420
#	254870
#	267995
#	284107
#	295845
#	313795
# Disc length: 4321 seconds
# Revision: 2
# Processed by: cddbd v1.5.2PL0 Copyright (c) Steve Scherf et al.
#
# Submitted via: libkcddb 0.31
#
DISCID=6e10df19
DTITLE=John Lee Hooker - The Boogie Chillen Man
DYEAR=1900
DGENRE=Unknown
TTITLE0=Boogie Chillen
TTITLE1=Hobo Blues
TTITLE2=Dimpless
TTITLE3=I'm In The Mood
TTITLE4=I Love You Honey
TTITLE5=No Shoes
TTITLE6=Boom Boom
TTITLE7=Crawling King Snake Blues
TTITLE8=Blues Before Sunrise
TTITLE9=Maudie
TTITLE10=Love Blues
TTITLE11=Walkin' The Boogie
TTITLE12=Leave My Wife Alone
TTITLE13=Ramblin' By Myself
TTITLE14=Sugar Mama
TTITLE15=Down At The Landing
TTITLE16=Ground Hog Blues
TTITLE17=High Priced Woman
TTITLE18=I'm So Excited
TTITLE19=Time Is Marching
TTITLE20=Every Night
TTITLE21=My First Wife Left Me
TTITLE22=Little Wheel
TTITLE23=Wednesday Evening Blues
TTITLE24=Dusty Road
EXTD=
EXTT0=
EXTT1=
EXTT2=
EXTT3=
EXTT4=
EXTT5=
EXTT6=
EXTT7=
EXTT8=
EXTT9=
EXTT10=
EXTT11=
EXTT12=
EXTT13=
EXTT14=
EXTT15=
EXTT16=
EXTT17=
EXTT18=
EXTT19=
EXTT20=
EXTT21=
EXTT22=
EXTT23=
EXTT24=
PLAYORDER=
